<svg width="52" height="51" viewBox="0 0 52 51" fill="none" xmlns="http://www.w3.org/2000/svg">
<path d="M51.0439 28.8285C51.0439 25.3679 48.4698 22.4985 45.136 22.0308V20.3396C45.136 9.53651 36.347 0.747559 25.5439 0.747559C14.7409 0.747559 5.95192 9.53651 5.95192 20.3396V22.0308C4.88658 22.1803 3.89885 22.574 3.048 23.1551V12.7137H0.0439453V28.8285C0.0439453 32.2892 2.61812 35.1586 5.95192 35.6263V36.8962C5.95192 42.5281 10.5338 47.11 16.1657 47.11H20.2865C20.9129 48.9425 22.6507 50.2643 24.6927 50.2643H26.0445C28.612 50.2643 30.7008 48.1754 30.7008 45.608C30.7008 43.0405 28.612 40.9517 26.0445 40.9517H24.6927C22.6507 40.9517 20.9128 42.2735 20.2865 44.1059H16.1657C12.5765 44.1059 9.59223 41.4693 9.04609 38.0313C9.62377 38.2672 10.2549 38.3982 10.9164 38.3982C13.6538 38.3982 15.8809 36.1711 15.8809 33.4338V24.0367C15.8809 21.2993 13.6538 19.0722 10.9164 19.0722C10.2294 19.0722 9.5746 19.2127 8.979 19.466C9.43471 10.7238 16.6903 3.75151 25.5439 3.75151C34.3976 3.75151 41.6532 10.7238 42.1089 19.466C41.5133 19.2126 40.8585 19.0722 40.1715 19.0722C37.4341 19.0722 35.207 21.2993 35.207 24.0367V33.4338C35.207 36.1711 37.4341 38.3982 40.1715 38.3982C42.1005 38.3982 43.7747 37.2917 44.5961 35.6807C48.1879 35.4636 51.0439 32.474 51.0439 28.8285ZM24.6928 43.9558H26.0446C26.9556 43.9558 27.6968 44.697 27.6968 45.6081C27.6968 46.5191 26.9556 47.2603 26.0446 47.2603H24.6928C23.7818 47.2603 23.0406 46.5191 23.0406 45.6081C23.0406 44.697 23.7818 43.9558 24.6928 43.9558ZM3.048 28.8285C3.048 27.0297 4.28437 25.5141 5.95192 25.0868V32.5704C4.28437 32.1431 3.048 30.6275 3.048 28.8285ZM10.9164 22.0763C11.9974 22.0763 12.8769 22.9558 12.8769 24.0368V33.4338C12.8769 34.5148 11.9974 35.3943 10.9164 35.3943C9.83545 35.3943 8.95597 34.5148 8.95597 33.4338V24.0368C8.95597 22.9557 9.83545 22.0763 10.9164 22.0763ZM40.1715 35.3943C39.0905 35.3943 38.211 34.5148 38.211 33.4338V24.0368C38.211 22.9558 39.0905 22.0763 40.1715 22.0763C41.2524 22.0763 42.1319 22.9558 42.1319 24.0368V33.4338C42.1319 34.5148 41.2524 35.3943 40.1715 35.3943ZM45.136 32.5704V25.0868C46.8035 25.5141 48.0399 27.0297 48.0399 28.8286C48.0399 30.6275 46.8034 32.1431 45.136 32.5704Z" fill="#689038"/>
</svg>
