<svg width="52" height="52" viewBox="0 0 52 52" fill="none" xmlns="http://www.w3.org/2000/svg">
<g clip-path="url(#clip0)">
<path d="M38.5616 30.3271C35.0168 30.3271 32.1331 33.2109 32.1331 36.7557C32.1331 40.3005 35.0168 43.1843 38.5616 43.1843C42.107 43.1843 44.9902 40.3005 44.9902 36.7557C44.9902 33.2109 42.1064 30.3271 38.5616 30.3271ZM38.5616 39.97C36.789 39.97 35.3474 38.5284 35.3474 36.7557C35.3474 34.9831 36.789 33.5414 38.5616 33.5414C40.3343 33.5414 41.7759 34.9831 41.7759 36.7557C41.7759 38.5285 40.3343 39.97 38.5616 39.97Z" fill="#689038"/>
<path d="M16.5975 30.3271C13.0527 30.3271 10.1689 33.2109 10.1689 36.7557C10.1689 40.3005 13.0527 43.1843 16.5975 43.1843C20.1423 43.1843 23.0261 40.3005 23.0261 36.7557C23.0261 33.2109 20.1423 30.3271 16.5975 30.3271ZM16.5975 39.97C14.8249 39.97 13.3832 38.5284 13.3832 36.7557C13.3832 34.9831 14.8249 33.5414 16.5975 33.5414C18.3697 33.5414 19.8118 34.9831 19.8118 36.7557C19.8118 38.5285 18.3702 39.97 16.5975 39.97Z" fill="#689038"/>
<path d="M42.8908 11.9265C42.6176 11.3839 42.0621 11.0415 41.4545 11.0415H32.9902V14.2558H40.4634L44.8397 22.9601L47.7122 21.5157L42.8908 11.9265Z" fill="#689038"/>
<path d="M33.7403 35.2024H21.5796V38.4167H33.7403V35.2024Z" fill="#689038"/>
<path d="M11.7761 35.2024H6.20475C5.31704 35.2024 4.59766 35.9219 4.59766 36.8095C4.59766 37.6972 5.31713 38.4166 6.20475 38.4166H11.7762C12.6639 38.4166 13.3833 37.6971 13.3833 36.8095C13.3833 35.9218 12.6638 35.2024 11.7761 35.2024Z" fill="#689038"/>
<path d="M50.7065 25.3774L47.5453 21.3059C47.2416 20.9138 46.7729 20.6845 46.2762 20.6845H34.5976V9.43449C34.5976 8.54677 33.8781 7.82739 32.9905 7.82739H6.20475C5.31704 7.82739 4.59766 8.54687 4.59766 9.43449C4.59766 10.3221 5.31713 11.0416 6.20475 11.0416H31.3833V22.2916C31.3833 23.1793 32.1028 23.8987 32.9904 23.8987H45.4892L47.8297 26.9136V35.2022H43.3833C42.4955 35.2022 41.7762 35.9217 41.7762 36.8093C41.7762 37.6971 42.4956 38.4164 43.3833 38.4164H49.4368C50.3245 38.4164 51.0439 37.697 51.044 36.8093V26.3631C51.044 26.0063 50.9251 25.6592 50.7065 25.3774Z" fill="#689038"/>
<path d="M11.6689 27.0596H4.27604C3.38832 27.0596 2.66895 27.7791 2.66895 28.6667C2.66895 29.5544 3.38842 30.2738 4.27604 30.2738H11.6689C12.5566 30.2738 13.2759 29.5543 13.2759 28.6667C13.276 27.7791 12.5566 27.0596 11.6689 27.0596Z" fill="#689038"/>
<path d="M15.3654 20.738H1.65104C0.763424 20.738 0.0439453 21.4575 0.0439453 22.3452C0.0439453 23.233 0.763424 23.9523 1.65104 23.9523H15.3654C16.2531 23.9523 16.9725 23.2329 16.9725 22.3452C16.9725 21.4576 16.2531 20.738 15.3654 20.738Z" fill="#689038"/>
<path d="M17.9904 14.4167H4.27604C3.38832 14.4167 2.66895 15.1362 2.66895 16.0238C2.66895 16.9116 3.38842 17.6309 4.27604 17.6309H17.9904C18.8781 17.6309 19.5975 16.9115 19.5975 16.0238C19.5976 15.1362 18.8781 14.4167 17.9904 14.4167Z" fill="#689038"/>
</g>
<defs>
<clipPath id="clip0">
<rect x="0.0439453" y="0.00585938" width="51" height="51" fill="white"/>
</clipPath>
</defs>
</svg>
