<?xml version="1.0" encoding="utf-8"?><svg xmlns="http://www.w3.org/2000/svg" xmlns:xlink="http://www.w3.org/1999/xlink"><symbol fill="none" viewBox="0 0 25 25" id="facebook" xmlns="http://www.w3.org/2000/svg"><path d="M12.5 25C19.4036 25 25 19.4036 25 12.5C25 5.59644 19.4036 0 12.5 0C5.59644 0 0 5.59644 0 12.5C0 19.4036 5.59644 25 12.5 25Z" fill="#385898"/><path d="M15.6423 12.9894H13.4119V21.1608H10.0325V12.9894H8.42529V10.1176H10.0325V8.25925C10.0325 6.93032 10.6638 4.84937 13.442 4.84937L15.9452 4.85984V7.64737H14.1289C13.831 7.64737 13.4121 7.79622 13.4121 8.43015V10.1203H15.9376L15.6423 12.9894Z" fill="white"/></symbol><symbol fill="none" viewBox="0 0 36 36" id="like" xmlns="http://www.w3.org/2000/svg"><path d="M33.9209 17.5093C33.9209 26.3458 26.7575 33.5093 17.9209 33.5093C9.08434 33.5093 1.9209 26.3458 1.9209 17.5093C1.9209 8.67272 9.08434 1.50928 17.9209 1.50928C26.7575 1.50928 33.9209 8.67272 33.9209 17.5093Z" stroke="white" stroke-width="3"/><path d="M33.0025 17.5096C33.0025 9.17756 26.2492 2.42334 17.9189 2.42334C9.58825 2.42334 2.83496 9.17756 2.83496 17.5096C2.83496 25.8415 9.58825 32.5958 17.9189 32.5958C26.2492 32.5958 33.0025 25.8415 33.0025 17.5096Z" fill="#FA5770"/><path d="M24.7408 12.8195L24.7303 12.8089C23.0056 11.0769 20.2016 11.0767 18.4767 12.8085L17.9576 13.3294L17.4091 12.7788C15.6812 11.0438 12.8726 11.0438 11.1447 12.7788C9.4127 14.5175 9.4127 17.3295 11.1447 19.0682L17.1512 25.0989C17.5962 25.5455 18.3195 25.5455 18.7642 25.0989L24.7408 19.0986C26.4678 17.3645 26.4678 14.5534 24.7408 12.8195Z" fill="white"/></symbol><symbol fill="none" viewBox="0 0 35 36" id="smile" xmlns="http://www.w3.org/2000/svg"><path d="M17.5792 32.2219C25.5728 32.2219 32.0528 25.7418 32.0528 17.7481C32.0528 9.75453 25.5728 3.27441 17.5792 3.27441C9.58556 3.27441 3.10547 9.75453 3.10547 17.7481C3.10547 25.7418 9.58556 32.2219 17.5792 32.2219Z" fill="#FFCA28"/><path d="M33.5 17.748C33.5 26.5846 26.3366 33.748 17.5 33.748C8.66344 33.748 1.5 26.5846 1.5 17.748C1.5 8.91149 8.66344 1.74805 17.5 1.74805C26.3366 1.74805 33.5 8.91149 33.5 17.748Z" stroke="white" stroke-width="3"/><path d="M25.7019 15.0523C25.2025 15.0523 24.7973 14.647 24.7973 14.1477C24.7973 13.1508 23.9867 12.3385 22.9881 12.3385C21.9894 12.3385 21.1788 13.1508 21.1788 14.1477C21.1788 14.647 20.7736 15.0523 20.2742 15.0523C19.7749 15.0523 19.3696 14.647 19.3696 14.1477C19.3696 12.1521 20.9925 10.5293 22.9881 10.5293C24.9836 10.5293 26.6065 12.1521 26.6065 14.1477C26.6065 14.6488 26.2012 15.0523 25.7019 15.0523Z" fill="#6D4C41"/><path d="M14.8469 15.0523C14.3475 15.0523 13.9423 14.647 13.9423 14.1477C13.9423 13.1508 13.1299 12.3385 12.1331 12.3385C11.1362 12.3385 10.3239 13.1508 10.3239 14.1477C10.3239 14.647 9.91859 15.0523 9.41925 15.0523C8.91991 15.0523 8.51465 14.647 8.51465 14.1477C8.51465 12.1521 10.1375 10.5293 12.1331 10.5293C14.1286 10.5293 15.7515 12.1521 15.7515 14.1477C15.7515 14.6488 15.3462 15.0523 14.8469 15.0523Z" fill="#6D4C41"/>
<path d="M27.852 19.9352C27.6801 19.7091 27.4142 19.5752 27.132 19.5752H7.99052C7.70647 19.5752 7.44052 19.7073 7.27045 19.9334C7.09677 20.1614 7.04249 20.4527 7.11848 20.7259C8.42654 25.3737 12.7216 28.6212 17.5594 28.6212C22.3973 28.6212 26.6923 25.3737 28.0004 20.7259C28.0782 20.4527 28.0239 20.1614 27.852 19.9352Z" fill="#FAFAFA"/></symbol><symbol fill="none" viewBox="0 0 35 35" id="thumbs-up" xmlns="http://www.w3.org/2000/svg"><path d="M32.4164 17.5001C32.4164 9.50638 25.9373 3.02637 17.9451 3.02637C9.95274 3.02637 3.47363 9.50638 3.47363 17.5001C3.47363 25.4938 9.95274 31.9738 17.9451 31.9738C25.9373 31.9738 32.4164 25.4938 32.4164 17.5001Z" fill="#407FFF"/><path d="M24.5845 16.9994C24.5845 16.2111 23.9458 15.5725 23.1578 15.5725H21.1355C21.7196 14.1109 21.7622 12.9125 21.7585 12.5287C21.7581 12.4865 21.7675 12.337 21.7675 12.3039V12.2374C21.7251 10.8494 21.3002 10.4245 20.7545 10.2222C20.1949 10.2222 19.7412 10.6756 19.7412 11.2352V11.3366C19.7357 11.6835 19.2483 12.3993 19.2483 12.3993L15.5305 16.1599L15.4678 16.237V19.2608V23.9495C15.4678 24.0917 15.5831 24.2068 15.7251 24.2068H22.7245C23.2007 24.2068 23.6055 23.8596 23.6775 23.3887C23.9526 21.5888 24.5845 17.4121 24.5845 16.9994Z" fill="white"/>
<path d="M13.5297 24.7789H10.9822C10.5363 24.7789 10.1748 24.4173 10.1748 23.9712V16.3226C10.1748 15.8765 10.5363 15.5151 10.9822 15.5151H13.5297C13.9756 15.5151 14.3372 15.8765 14.3372 16.3226V23.9712C14.3372 24.4173 13.9756 24.7789 13.5297 24.7789Z" fill="white"/>
<path d="M33.5 17.5C33.5 26.3366 26.3366 33.5 17.5 33.5C8.66344 33.5 1.5 26.3366 1.5 17.5C1.5 8.66344 8.66344 1.5 17.5 1.5C26.3366 1.5 33.5 8.66344 33.5 17.5Z" stroke="white" stroke-width="3"/>
</symbol></svg>