<?xml version="1.0" encoding="utf-8"?><svg xmlns="http://www.w3.org/2000/svg" xmlns:xlink="http://www.w3.org/1999/xlink"><symbol viewBox="0 0 40 40" fill="none" id="circle-plus" xmlns="http://www.w3.org/2000/svg"><circle cx="20" cy="20" r="20" fill="#E86340"/></symbol><symbol viewBox="0 0 32 32" id="facebook-icon" xmlns="http://www.w3.org/2000/svg"><path d="M28.8 0H3.2A3.21 3.21 0 000 3.2v25.6C0 30.56 1.44 32 3.2 32h25.6c1.76 0 3.2-1.44 3.2-3.2V3.2C32 1.44 30.56 0 28.8 0zm-1.6 3.2V8H24c-.96 0-1.6.64-1.6 1.6v3.2h4.8v4.8h-4.8v11.2h-4.8V17.6h-3.2v-4.8h3.2v-4c0-3.04 2.56-5.6 5.6-5.6h4z"/></symbol><symbol viewBox="0 0 32 32" id="google-plus" xmlns="http://www.w3.org/2000/svg"><path d="M14.72 11.04c0-1.6-.96-4.8-3.36-4.8-.96 0-2.08.64-2.08 2.72 0 1.92.96 4.64 3.2 4.64 0 0 2.24-.16 2.24-2.56zm-.96 7.84h-.48c-.48 0-1.92.16-2.88.48-1.12.32-2.4 1.12-2.4 2.72 0 1.76 1.6 3.52 4.8 3.52 2.4 0 3.84-1.6 3.84-3.2 0-1.12-.8-1.92-2.88-3.52zM28.8 0H3.2A3.21 3.21 0 000 3.2v25.6C0 30.56 1.44 32 3.2 32h25.6c1.76 0 3.2-1.44 3.2-3.2V3.2C32 1.44 30.56 0 28.8 0zM11.36 27.52c-4.48 0-6.56-2.56-6.56-4.8 0-.8.16-2.56 2.4-3.84 1.28-.8 2.88-1.28 4.96-1.44-.32-.32-.48-.8-.48-1.6 0-.32 0-.48.16-.8h-.64c-3.2 0-5.12-2.4-5.12-4.8 0-2.72 2.08-5.76 6.56-5.76h6.72l-.48.48-1.12 1.12-.16.16h-1.12c.64.64 1.44 1.76 1.44 3.52 0 2.24-1.12 3.36-2.56 4.32-.32.16-.64.64-.64 1.12 0 .48.32.8.64.96.16.16.48.32.8.48 1.28.96 3.04 2.08 3.04 4.64 0 2.88-2.08 6.24-7.84 6.24zM27.2 16H24v3.2h-1.6V16h-3.2v-1.6h3.2v-3.2H24v3.2h3.2V16z"/></symbol></svg>