<svg width="76" height="76" viewBox="0 0 76 76" fill="none" xmlns="http://www.w3.org/2000/svg">
<path d="M64.25 0.500732H11.75C8.76735 0.504092 5.90782 1.69044 3.79876 3.79949C1.6897 5.90855 0.50336 8.76808 0.5 11.7507V64.2507C0.50336 67.2334 1.6897 70.0929 3.79876 72.202C5.90782 74.311 8.76735 75.4974 11.75 75.5007H64.25C67.2327 75.4974 70.0922 74.311 72.2012 72.202C74.3103 70.0929 75.4966 67.2334 75.5 64.2507V11.7507C75.4966 8.76808 74.3103 5.90855 72.2012 3.79949C70.0922 1.69044 67.2327 0.504092 64.25 0.500732ZM73 64.2507C72.9974 66.5706 72.0747 68.7947 70.4343 70.435C68.7939 72.0754 66.5698 72.9981 64.25 73.0007H11.75C9.43015 72.9981 7.20607 72.0754 5.56569 70.435C3.92531 68.7947 3.0026 66.5706 3 64.2507V11.7507C3.0026 9.43089 3.92531 7.2068 5.56569 5.56642C7.20607 3.92604 9.43015 3.00333 11.75 3.00073H64.25C66.5698 3.00333 68.7939 3.92604 70.4343 5.56642C72.0747 7.2068 72.9974 9.43089 73 11.7507V64.2507Z" fill="#689038"/>
<path d="M34.25 65.5007H41.75V68.0007H34.25V65.5007Z" fill="#689038"/>
<path d="M23 34.2507C23.0006 33.185 22.7286 32.1368 22.21 31.2058C21.6913 30.2748 20.9432 29.4919 20.0368 28.9314C19.1303 28.371 18.0956 28.0517 17.0309 28.0038C15.9663 27.9559 14.9071 28.181 13.9539 28.6578C13.0008 29.1345 12.1854 29.8471 11.5853 30.7278C10.9851 31.6085 10.6201 32.628 10.525 33.6894C10.4298 34.7509 10.6077 35.8191 11.0416 36.7924C11.4756 37.7658 12.1512 38.612 13.0044 39.2507H13V54.2507H13.0044C11.9539 55.0371 11.1776 56.1343 10.7855 57.3865C10.3934 58.6388 10.4054 59.9828 10.8199 61.2278C11.2343 62.4729 12.0301 63.556 13.0944 64.3235C14.1588 65.091 15.4378 65.504 16.75 65.504C18.0622 65.504 19.3412 65.091 20.4056 64.3235C21.4699 63.556 22.2657 62.4729 22.6801 61.2278C23.0946 59.9828 23.1066 58.6388 22.7145 57.3865C22.3224 56.1343 21.5461 55.0371 20.4956 54.2507H20.5V39.2507H20.4956C21.273 38.6693 21.9041 37.9147 22.3388 37.0467C22.7736 36.1788 22.9999 35.2215 23 34.2507ZM16.75 63.0007C16.0083 63.0007 15.2833 62.7808 14.6666 62.3687C14.0499 61.9567 13.5693 61.371 13.2855 60.6858C13.0016 60.0006 12.9274 59.2466 13.0721 58.5191C13.2168 57.7917 13.5739 57.1235 14.0984 56.5991C14.6228 56.0746 15.291 55.7175 16.0184 55.5728C16.7458 55.4281 17.4998 55.5024 18.1851 55.7862C18.8703 56.07 19.456 56.5507 19.868 57.1673C20.2801 57.784 20.5 58.5091 20.5 59.2507C20.4989 60.2449 20.1034 61.1981 19.4004 61.9011C18.6974 62.6041 17.7442 62.9996 16.75 63.0007ZM18 53.1265C17.1751 52.9588 16.3249 52.9588 15.5 53.1265V40.375C16.3249 40.5427 17.1751 40.5427 18 40.375V53.1265ZM16.75 38.0007C16.0083 38.0007 15.2833 37.7808 14.6666 37.3687C14.0499 36.9567 13.5693 36.371 13.2855 35.6858C13.0016 35.0006 12.9274 34.2466 13.0721 33.5191C13.2168 32.7917 13.5739 32.1235 14.0984 31.5991C14.6228 31.0746 15.291 30.7175 16.0184 30.5728C16.7458 30.4281 17.4998 30.5023 18.1851 30.7862C18.8703 31.07 19.456 31.5507 19.868 32.1673C20.2801 32.784 20.5 33.509 20.5 34.2507C20.4989 35.2449 20.1034 36.1981 19.4004 36.9011C18.6974 37.6041 17.7442 37.9996 16.75 38.0007Z" fill="#689038"/>
<path d="M65.5 34.2507C65.5006 33.185 65.2286 32.1368 64.71 31.2058C64.1913 30.2748 63.4432 29.4919 62.5368 28.9314C61.6303 28.371 60.5956 28.0517 59.5309 28.0038C58.4663 27.9559 57.4071 28.181 56.4539 28.6578C55.5008 29.1345 54.6854 29.8471 54.0853 30.7278C53.4851 31.6085 53.1201 32.628 53.025 33.6894C52.9298 34.7509 53.1077 35.8191 53.5416 36.7924C53.9756 37.7658 54.6512 38.612 55.5044 39.2507H55.5V54.2542C54.4506 55.0412 53.6754 56.1385 53.2843 57.3906C52.8932 58.6427 52.9059 59.9861 53.3207 61.2306C53.7355 62.475 54.5314 63.5574 55.5956 64.3244C56.6597 65.0914 57.9382 65.5042 59.25 65.5042C60.5618 65.5042 61.8403 65.0914 62.9044 64.3244C63.9686 63.5574 64.7645 62.475 65.1793 61.2306C65.5941 59.9861 65.6068 58.6427 65.2157 57.3906C64.8246 56.1385 64.0494 55.0412 63 54.2542V39.2507H62.9956C63.773 38.6693 64.4041 37.9147 64.8388 37.0467C65.2736 36.1788 65.4999 35.2215 65.5 34.2507ZM59.25 63.0007C58.5083 63.0007 57.7833 62.7808 57.1666 62.3687C56.5499 61.9567 56.0693 61.371 55.7855 60.6858C55.5016 60.0006 55.4274 59.2466 55.5721 58.5191C55.7167 57.7917 56.0739 57.1235 56.5984 56.5991C57.1228 56.0746 57.791 55.7175 58.5184 55.5728C59.2458 55.4281 59.9998 55.5024 60.6851 55.7862C61.3703 56.07 61.956 56.5507 62.368 57.1673C62.7801 57.784 63 58.5091 63 59.2507C62.9989 60.2449 62.6034 61.1981 61.9004 61.9011C61.1974 62.6041 60.2442 62.9996 59.25 63.0007ZM60.5 53.1265C59.6751 52.9588 58.8249 52.9588 58 53.1265V40.375C58.8249 40.5427 59.6751 40.5427 60.5 40.375V53.1265ZM59.25 38.0007C58.5083 38.0007 57.7833 37.7808 57.1666 37.3687C56.5499 36.9567 56.0693 36.371 55.7855 35.6858C55.5016 35.0006 55.4274 34.2466 55.5721 33.5191C55.7167 32.7917 56.0739 32.1235 56.5984 31.5991C57.1228 31.0746 57.791 30.7175 58.5184 30.5728C59.2458 30.4281 59.9998 30.5023 60.6851 30.7862C61.3703 31.07 61.956 31.5507 62.368 32.1673C62.7801 32.784 63 33.509 63 34.2507C62.9989 35.2449 62.6034 36.1981 61.9004 36.9011C61.1974 37.6041 60.2442 37.9996 59.25 38.0007Z" fill="#689038"/>
<path d="M39.25 15.5007H41.75V18.0007H39.25V15.5007Z" fill="#689038"/>
<path d="M44.25 15.5007H46.75V18.0007H44.25V15.5007Z" fill="#689038"/>
<path d="M58 21.7507V11.7507C57.9981 10.0937 57.339 8.5051 56.1673 7.33341C54.9956 6.16172 53.407 5.50263 51.75 5.50073H24.25C22.593 5.50263 21.0044 6.16172 19.8327 7.33341C18.661 8.5051 18.0019 10.0937 18 11.7507V21.7507C18.0019 23.4078 18.661 24.9964 19.8327 26.1681C21.0044 27.3397 22.593 27.9988 24.25 28.0007H51.75C53.407 27.9988 54.9956 27.3397 56.1673 26.1681C57.339 24.9964 57.9981 23.4078 58 21.7507ZM55.5 21.7507C55.4989 22.7449 55.1034 23.6981 54.4004 24.4011C53.6974 25.1041 52.7442 25.4996 51.75 25.5007H24.25C23.2558 25.4996 22.3026 25.1041 21.5996 24.4011C20.8966 23.6981 20.5011 22.7449 20.5 21.7507V11.7507C20.5011 10.7565 20.8966 9.80335 21.5996 9.10034C22.3026 8.39732 23.2558 8.00187 24.25 8.00073H51.75C52.7442 8.00187 53.6974 8.39732 54.4004 9.10034C55.1034 9.80335 55.4989 10.7565 55.5 11.7507V21.7507Z" fill="#689038"/>
<path d="M51.75 10.5007H24.25C23.9185 10.5007 23.6006 10.6325 23.3661 10.8669C23.1317 11.1013 23 11.4192 23 11.7507V21.7507C23 22.0822 23.1317 22.4002 23.3661 22.6346C23.6006 22.869 23.9185 23.0007 24.25 23.0007H51.75C52.0815 23.0007 52.3994 22.869 52.6339 22.6346C52.8683 22.4002 53 22.0822 53 21.7507V11.7507C53 11.4192 52.8683 11.1013 52.6339 10.8669C52.3994 10.6325 52.0815 10.5007 51.75 10.5007ZM50.5 20.5007H25.5V13.0007H50.5V20.5007Z" fill="#689038"/>
</svg>
