<svg width="76" height="76" viewBox="0 0 76 76" fill="none" xmlns="http://www.w3.org/2000/svg">
<path d="M11.5825 22.3106C13.3954 25.6982 14.3674 29.4721 14.4164 33.3141C14.4654 37.1561 13.59 40.9535 11.864 44.3864L14.0968 45.5109C15.9905 41.744 16.957 37.5792 16.9158 33.3632C16.8746 29.1473 15.8269 25.0022 13.8599 21.273H62.1008C60.1338 25.0021 59.0861 29.1473 59.0448 33.3632C59.0036 37.5792 59.9701 41.744 61.8638 45.5109L64.0967 44.3864C62.3707 40.9535 61.4953 37.1561 61.5443 33.3141C61.5933 29.4721 62.5652 25.6982 64.3782 22.3105L71.7905 8.47433C72.9585 6.29348 73.8626 3.98132 74.4839 1.58667L72.0638 0.959229C71.4925 3.16158 70.661 5.28806 69.5869 7.29376L67.4551 11.273H8.50558L6.37381 7.29362C5.29961 5.28798 4.4681 3.16155 3.89685 0.959243L1.47681 1.58668C2.09801 3.98128 3.00215 6.2934 4.17014 8.47419L11.5825 22.3106ZM66.1159 13.773L63.4373 18.773H12.5234L9.84485 13.773H66.1159Z" fill="#689038"/>
<path d="M3.99608 65.0229H14.2305V62.5229H4.67212C5.40388 60.1317 6.36804 57.8179 7.55078 55.6146L5.34863 54.4312C2.15829 60.3792 0.486079 67.0231 0.480469 73.7727V75.0229H2.98047V73.7727C2.98047 73.3559 2.98749 72.9392 3.00154 72.5229H10.4805V70.0229H3.16683C3.33317 68.3398 3.61018 66.6695 3.99608 65.0229Z" fill="#689038"/>
<path d="M70.6123 54.4312L68.4102 55.6146C69.5929 57.8179 70.557 60.1317 71.2888 62.5229H61.7305V65.0229H71.9648C72.3507 66.6695 72.6277 68.3398 72.7941 70.0229H65.4805V72.5229H72.9594C72.9731 72.9393 72.9801 73.3559 72.9805 73.7729V75.0229H75.4805V73.7729C75.4749 67.0232 73.8027 60.3793 70.6123 54.4312Z" fill="#689038"/>
<path d="M40.4805 62.5229H35.4805V65.0229H40.4805V62.5229Z" fill="#689038"/>
<path d="M51.7305 70.0229H24.2305V72.5229H51.7305V70.0229Z" fill="#689038"/>
<path d="M24.1822 34.6794L21.7783 35.3664C22.9213 39.3702 23.6701 43.4762 24.0139 47.6258L26.5053 47.4201C26.1481 43.1076 25.37 38.8404 24.1822 34.6794Z" fill="#689038"/>
<path d="M39.2305 47.5229H36.7305V50.0229H39.2305V47.5229Z" fill="#689038"/>
<path d="M54.1823 35.3664L51.7785 34.6794C50.5907 38.8404 49.8126 43.1076 49.4553 47.4201L51.9468 47.6258C52.2906 43.4762 53.0393 39.3702 54.1823 35.3664Z" fill="#689038"/>
<path d="M35.4798 32.5229V30.0229H34.0185C32.0124 30.0172 30.0417 29.495 28.296 28.5066C26.5504 27.5182 25.0886 26.097 24.0517 24.3798L21.908 25.6661C23.168 27.7526 24.9441 29.4796 27.0652 30.6805C29.1863 31.8815 31.581 32.516 34.0185 32.5229H35.4798Z" fill="#689038"/>
<path d="M54.0523 25.6661L51.9086 24.3798C50.8716 26.097 49.4099 27.5182 47.6643 28.5066C45.9186 29.495 43.9478 30.0172 41.9418 30.0229H40.4805V32.5229H41.9418C44.3793 32.516 46.7739 31.8815 48.8951 30.6805C51.0162 29.4796 52.7923 27.7526 54.0523 25.6661Z" fill="#689038"/>
<path d="M7.33587 47.1244C7.94687 47.627 8.66367 47.9848 9.43258 48.1711L30.1838 53.2405L30.7771 50.8119L10.0258 45.7425C9.67515 45.6576 9.34482 45.5038 9.05406 45.2902C8.7633 45.0765 8.51789 44.8072 8.33211 44.4978C8.83684 44.0315 9.49887 43.7726 10.1861 43.7729H10.4805V41.2729H10.1861C9.47199 41.2732 8.76555 41.4197 8.11023 41.7034L8.19349 41.1206C8.28926 40.4703 8.615 39.8758 9.11161 39.4451C9.60823 39.0143 10.2428 38.7759 10.9002 38.7731H11.7305V36.2731H10.9001C9.64165 36.2785 8.42685 36.7349 7.47617 37.5594C6.52548 38.384 5.90192 39.522 5.71867 40.7671L4.76171 47.4657C4.58313 48.7647 4.89576 50.0837 5.63841 51.1643C6.38106 52.245 7.50026 53.0097 8.77699 53.3086L23.9519 56.7772L24.509 54.3401L9.33401 50.8715C8.66707 50.7153 8.08241 50.3159 7.69446 49.7514C7.30652 49.1868 7.14322 48.4978 7.23654 47.8192L7.33587 47.1244Z" fill="#689038"/>
<path d="M63.9287 69.2072C60.3614 64.7427 56.0251 60.9515 51.1242 58.0125L49.8371 60.1557C54.1248 62.7269 57.959 65.9877 61.1854 69.8069L58.2475 72.0103C54.3729 66.8389 49.3303 62.657 43.5313 59.8061L42.4299 62.0504C48.2422 64.9077 53.2389 69.1864 56.9566 74.4898C57.0527 74.6271 57.1755 74.7437 57.3175 74.8326C57.4596 74.9215 57.6181 74.9809 57.7836 75.0073C57.9491 75.0337 58.1182 75.0266 58.2809 74.9864C58.4436 74.9461 58.5965 74.8736 58.7306 74.773L63.7306 71.023C63.8646 70.9225 63.9771 70.796 64.0612 70.6512C64.1454 70.5064 64.1997 70.3461 64.2207 70.1799C64.2417 70.0137 64.2292 69.845 64.1837 69.6837C64.1383 69.5225 64.0609 69.372 63.9561 69.2412L63.9287 69.2072Z" fill="#689038"/>
<path d="M67.1841 53.3086C68.4608 53.0097 69.5801 52.245 70.3227 51.1644C71.0654 50.0837 71.378 48.7647 71.1995 47.4657L70.2425 40.7672C70.0593 39.5222 69.4357 38.384 68.485 37.5594C67.5343 36.7349 66.3195 36.2785 65.061 36.2731H64.2307V38.7731H65.0609C65.7183 38.7759 66.3529 39.0143 66.8496 39.4451C67.3462 39.8759 67.6719 40.4704 67.7677 41.1208L67.8509 41.7034C67.1956 41.4197 66.4892 41.2732 65.7751 41.2729H65.4807V43.7729H65.7751C66.4623 43.7726 67.1243 44.0315 67.629 44.4979C67.4432 44.8072 67.1978 45.0765 66.9071 45.2902C66.6163 45.5038 66.286 45.6576 65.9353 45.7425L38.1911 52.5203C27.8762 55.0593 18.6838 60.923 12.0332 69.2063L12.0052 69.2412C11.9004 69.372 11.8231 69.5224 11.7776 69.6837C11.7322 69.8449 11.7196 70.0136 11.7406 70.1798C11.7616 70.3461 11.8159 70.5063 11.9001 70.6512C11.9843 70.796 12.0967 70.9224 12.2307 71.023L17.2307 74.773C17.3648 74.8735 17.5177 74.9461 17.6804 74.9864C17.8431 75.0266 18.0122 75.0338 18.1777 75.0074C18.3432 74.9809 18.5017 74.9215 18.6438 74.8326C18.7859 74.7437 18.9086 74.6271 19.0047 74.4898C24.4539 66.6936 32.6097 61.2046 41.8838 59.0915L67.1841 53.3086ZM17.7136 72.0101L14.7763 69.8072C21.0181 62.4538 29.4187 57.2547 38.7844 54.9489L66.5286 48.1711C67.2975 47.9848 68.0143 47.627 68.6253 47.1244L68.7246 47.8194C68.8179 48.498 68.6546 49.1869 68.2666 49.7514C67.8787 50.3159 67.294 50.7153 66.6271 50.8715L41.3267 56.6544C31.8818 58.8062 23.5112 64.2496 17.7136 72.0101Z" fill="#689038"/>
</svg>
