<svg width="80" height="80" viewBox="0 0 80 80" fill="none" xmlns="http://www.w3.org/2000/svg">
<path d="M39.3093 28.6187L38.1912 26.3827C36.8112 27.0686 35.2912 27.4255 33.7502 27.4255C32.2093 27.4255 30.6892 27.0686 29.3093 26.3827L28.1912 28.6187C29.9185 29.4773 31.8213 29.9241 33.7502 29.9241C35.6792 29.9241 37.582 29.4773 39.3093 28.6187Z" fill="#689038"/>
<path d="M27.5 46.2507H25V48.7507H27.5V46.2507Z" fill="#689038"/>
<path d="M30.6967 68.6441C29.7338 71.0508 29.1199 73.5827 28.8735 76.1631L31.3623 76.4008C31.586 74.0575 32.1435 71.7582 33.0178 69.5726L33.6608 67.965L31.3397 67.0366L30.6967 68.6441Z" fill="#689038"/>
<path d="M74.8357 34.3806L72.079 29.5562C70.4989 26.7927 68.2082 24.5021 65.4447 22.922C62.5543 21.2628 60.2794 18.7119 58.9606 15.6512L58.2859 14.077C57.6532 12.6007 56.8239 11.2167 55.8205 9.96258L53.7087 7.32266C53.1305 6.59648 52.3956 6.01043 51.559 5.60834C50.7224 5.20625 49.8057 4.99854 48.8774 5.00073H40.0003V2.50073H37.5003V5.91874L34.2894 11.5381C33.3156 13.2375 31.9614 14.6882 30.333 15.7766C29.8696 16.0863 29.3246 16.2513 28.7673 16.2507C28.297 16.2507 27.8342 16.1332 27.4208 15.9088C27.0075 15.6845 26.6568 15.3605 26.4005 14.9661C26.1442 14.5718 25.9905 14.1197 25.9534 13.6509C25.9162 13.1821 25.9968 12.7114 26.1878 12.2816L28.6426 6.75839C28.713 6.59844 28.7489 6.42548 28.7482 6.25073H28.7503V2.50073H26.2503V5.00073C26.2503 5.00073 21.4383 5.00073 20.4488 4.99905H20.4344C19.1296 4.99751 17.8426 5.30259 16.6773 5.88971L16.6216 5.91763C15.3635 6.54176 14.2859 7.4773 13.4913 8.6353C12.6967 9.7933 12.2115 11.1353 12.0818 12.5337L12.0745 12.6111C11.5469 18.1203 10.1311 23.5079 7.8818 28.5647L7.69793 28.9784C6.71049 31.1989 6.56593 33.7031 7.29128 36.0225L12.5572 52.8735L12.5585 52.8731C12.5609 52.8807 12.5619 52.8885 12.5644 52.8961L13.8144 56.6461C13.8809 56.8456 13.9967 57.025 14.151 57.1679C14.3053 57.3108 14.4931 57.4124 14.6971 57.4634L17.6183 58.1936L11.7208 75.8865L14.0926 76.6772L19.2348 61.2507H49.2239C50.4604 63.7987 50.7129 66.7135 49.933 69.4362L49.8844 69.6066C49.1042 72.3243 49.167 75.2148 50.0644 77.8961L52.4362 77.1054C51.6987 74.902 51.647 72.5267 52.2882 70.2934L52.3369 70.123C53.3042 66.7488 52.9682 63.1343 51.3956 59.9962L49.8931 56.9912L51.9197 55.6401C60.3232 50.0369 67.9739 43.3797 74.6846 35.8311C74.8584 35.6356 74.9665 35.3904 74.9936 35.1302C75.0207 34.87 74.9655 34.6078 74.8357 34.3806ZM23.2469 7.50073H25.5768L23.9032 11.2663C23.4349 12.32 23.3214 13.4972 23.5798 14.6209C23.8383 15.7447 24.4546 16.7541 25.3361 17.4973C26.2176 18.2406 27.3167 18.6775 28.4679 18.7423C29.6192 18.8071 30.7603 18.4963 31.7197 17.8567C33.6707 16.5527 35.2932 14.8145 36.46 12.7784L39.4757 7.50073H43.3267C43.0142 7.92314 42.7569 8.38376 42.5611 8.87139C41.524 10.2337 40.7771 11.794 40.3663 13.4561C39.9556 15.1182 39.8898 16.8468 40.1729 18.5354C40.4561 20.2239 41.0822 21.8365 42.0127 23.2737C42.9432 24.7109 44.1583 25.9422 45.5831 26.8916L47.213 27.9782L45.4041 32.5007H19.5627L18.4056 29.8971C20.0255 29.7794 21.6066 29.345 23.0594 28.6187L21.9412 26.3827C20.5045 27.1014 18.9147 27.4604 17.3085 27.4289L16.8851 26.4761C16.3466 25.2542 16.0931 23.9258 16.1436 22.5914C16.1942 21.257 16.5475 19.9516 17.1768 18.7739L23.2469 7.50073ZM49.9039 27.9825L51.047 25.3153L51.0643 25.3326C52.135 26.4008 52.9762 27.6765 53.5363 29.0814C54.6505 31.8516 56.6365 34.1836 59.1939 35.7248L59.9964 36.2062C56.7945 39.8046 53.3717 43.2002 49.7478 46.3731L47.1692 48.6294L46.651 48.4999L46.0874 46.8086C45.4097 44.779 45.3259 42.5982 45.8458 40.5226L47.4423 34.1363L49.9039 27.9825ZM37.1971 48.7881C36.9267 48.8557 36.6866 49.0118 36.515 49.2315C36.3435 49.4512 36.2503 49.722 36.2503 50.0007V53.7507H32.7751L34.9761 42.7459L32.5246 42.2555L30.2255 53.7507H22.8466L23.6609 51.7149C23.7518 51.4878 23.774 51.239 23.7248 50.9994C23.6756 50.7597 23.5572 50.5398 23.3843 50.3668L22.011 48.9935L22.4907 45.1558C22.5085 45.0136 22.5017 44.8694 22.4706 44.7296L20.3086 35.0007H44.6494L43.4206 39.9162C42.785 42.453 42.8873 45.1186 43.7155 47.5992L43.7762 47.7813L42.8035 47.5381C42.6045 47.4884 42.3962 47.4884 42.1971 47.5381L37.1971 48.7881ZM17.3205 33.6115L17.5572 34.144L19.9831 45.0606L19.7714 46.7539L19.6343 46.6168C19.5916 46.5748 19.546 46.5359 19.4977 46.5004C18.8564 42.6188 17.8183 38.8133 16.3999 35.1437C16.7205 34.6424 17.0253 34.1297 17.3205 33.6115ZM9.98247 29.9937L10.1663 29.58C12.5252 24.2767 14.01 18.6264 14.563 12.8485L14.5703 12.7711C14.6612 11.7949 15.0002 10.8582 15.555 10.0499C16.1099 9.24159 16.8623 8.58863 17.7406 8.15305L17.7963 8.12513C18.6066 7.71701 19.5007 7.50294 20.408 7.49981L14.9756 17.5886C14.1665 19.1028 13.7123 20.7812 13.6473 22.4968C13.5823 24.2124 13.9083 25.9203 14.6005 27.4914L16.0344 30.7177C15.42 31.9571 14.7273 33.1561 13.9603 34.3074C13.8478 34.4761 13.778 34.6696 13.757 34.8713C13.736 35.0729 13.7644 35.2767 13.8397 35.4649C15.3728 39.3001 16.4687 43.2958 17.1067 47.3765L14.3272 50.156L9.67745 35.2768C9.13343 33.5372 9.24187 31.6591 9.98247 29.9937ZM15.1805 52.8384L18.7503 49.2685L21.0337 51.5518L19.245 56.0234L15.9693 55.2044L15.1805 52.8384ZM20.0698 58.7457C20.3071 58.733 20.5359 58.6528 20.7292 58.5145C20.9225 58.3761 21.0723 58.1855 21.1609 57.9649L21.8466 56.2507H36.2503C36.2503 56.4357 36.2914 56.6183 36.3705 56.7855C36.4496 56.9526 36.5649 57.1002 36.7079 57.2174C36.8509 57.3346 37.0182 57.4187 37.1976 57.4635C37.3771 57.5083 37.5642 57.5127 37.7455 57.4765L43.7198 56.2816L47.1751 57.1454L47.9778 58.7507H20.0681L20.0698 58.7457ZM50.533 53.56L48.517 54.904L44.0535 53.7881C43.874 53.7431 43.6866 53.7386 43.5051 53.775L38.7503 54.7259V50.9767L42.5003 50.0392L46.6394 51.0739L47.6323 53.0598L49.8683 51.9417L49.0503 50.3055L51.3941 48.2545C56.0548 44.1745 60.3884 39.7352 64.355 34.9775L64.7106 34.5509L62.7901 32.9506L62.4346 33.3772C62.1796 33.6831 61.9228 33.9878 61.6643 34.2913L60.4802 33.5809C58.3906 32.3217 56.7678 30.4162 55.8574 28.1527C55.1719 26.4334 54.1425 24.8721 52.8322 23.5647L48.3843 19.1168L46.6164 20.8847L49.1429 23.4112L48.1933 25.6271L46.9698 24.8115C45.2494 23.6674 43.9249 22.0193 43.1779 20.0929C42.4309 18.1666 42.2979 16.0564 42.7971 14.0516C43.305 15.0893 44.0948 15.9632 45.076 16.5732C46.0573 17.1831 47.1904 17.5046 48.3458 17.5007H50.0003V15.0007H48.3458C47.6087 15.0031 46.888 14.7834 46.2776 14.3703C45.6671 13.9572 45.1952 13.3699 44.9233 12.6848L44.8731 12.5598C44.6488 12.0003 44.5651 11.3944 44.6293 10.795C44.6936 10.1957 44.9037 9.62122 45.2415 9.12196C45.5792 8.62269 46.0342 8.21384 46.5666 7.9312C47.099 7.64856 47.6925 7.50076 48.2953 7.50073H48.8774C49.4306 7.49946 49.9769 7.62326 50.4755 7.86286C50.9741 8.10247 51.412 8.45168 51.7566 8.8844L53.8683 11.5243C54.731 12.6026 55.444 13.7925 55.9879 15.0618L56.6626 16.636C58.1966 20.1958 60.8426 23.1628 64.2043 25.0926C66.5804 26.4511 68.5498 28.4205 69.9083 30.7966L72.2177 34.8382C65.7929 41.953 58.5089 48.2418 50.533 53.56Z" fill="#689038"/>
</svg>
