<svg width="76" height="76" viewBox="0 0 76 76" fill="none" xmlns="http://www.w3.org/2000/svg">
<path d="M27.116 45.8668L23.366 49.6168L25.1337 51.3847L27.9998 48.5185L30.866 51.3847L32.6337 49.6168L28.8837 45.8668C28.6492 45.6325 28.3313 45.5009 27.9998 45.5009C27.6683 45.5009 27.3504 45.6325 27.116 45.8668Z" fill="#689038"/>
<path d="M42.6337 49.6168L38.8837 45.8668C38.6492 45.6325 38.3313 45.5009 37.9998 45.5009C37.6683 45.5009 37.3504 45.6325 37.116 45.8668L33.366 49.6168L35.1337 51.3847L37.9998 48.5185L40.866 51.3847L42.6337 49.6168Z" fill="#689038"/>
<path d="M37.6337 42.1168L33.8837 38.3668C33.6492 38.1325 33.3313 38.0009 32.9998 38.0009C32.6683 38.0009 32.3504 38.1325 32.116 38.3668L28.366 42.1168L30.1337 43.8847L32.9998 41.0185L35.866 43.8847L37.6337 42.1168Z" fill="#689038"/>
<path d="M38.366 42.1168L40.1337 43.8847L42.9998 41.0185L45.866 43.8847L47.6337 42.1168L43.8837 38.3668C43.6492 38.1325 43.3313 38.0009 42.9998 38.0009C42.6683 38.0009 42.3504 38.1325 42.116 38.3668L38.366 42.1168Z" fill="#689038"/>
<path d="M30.866 36.3847L32.6337 34.6168L28.8837 30.8668C28.6492 30.6325 28.3313 30.5009 27.9998 30.5009C27.6683 30.5009 27.3504 30.6325 27.116 30.8668L23.366 34.6168L25.1337 36.3847L27.9998 33.5185L30.866 36.3847Z" fill="#689038"/>
<path d="M37.9998 33.5185L40.866 36.3847L42.6337 34.6168L38.8837 30.8668C38.6492 30.6325 38.3313 30.5009 37.9998 30.5009C37.6683 30.5009 37.3504 30.6325 37.116 30.8668L33.366 34.6168L35.1337 36.3847L37.9998 33.5185Z" fill="#689038"/>
<path d="M47.9998 33.5185L50.866 36.3847L52.6337 34.6168L48.8837 30.8668C48.6492 30.6325 48.3313 30.5009 47.9998 30.5009C47.6683 30.5009 47.3504 30.6325 47.116 30.8668L43.366 34.6168L45.1337 36.3847L47.9998 33.5185Z" fill="#689038"/>
<path d="M48 63.0007H45.5V65.5007H48V63.0007Z" fill="#689038"/>
<path d="M45.5 66.7507H43V69.2507H45.5V66.7507Z" fill="#689038"/>
<path d="M34.185 60.6799C33.5643 59.5984 32.5684 58.7821 31.3861 58.3859C30.4501 57.5628 29.2464 57.1089 28 57.1089C26.7536 57.1089 25.5499 57.5628 24.614 58.3859C23.4332 58.785 22.4382 59.6005 21.815 60.6799C21.1918 61.7592 20.9831 63.0286 21.2277 64.2508C20.9831 65.4729 21.1918 66.7423 21.815 67.8217C22.4382 68.901 23.4332 69.7165 24.614 70.1157C25.5499 70.9387 26.7536 71.3926 28 71.3926C29.2464 71.3926 30.4501 70.9387 31.3861 70.1157C32.5668 69.7165 33.5618 68.901 34.185 67.8217C34.8082 66.7423 35.017 65.4729 34.7723 64.2508C35.0202 63.0287 34.8113 61.7582 34.185 60.6799ZM32.3596 63.0006L30.1652 63.0007L31.2624 61.1004C31.572 61.3188 31.8305 61.6018 32.0199 61.9299C32.2094 62.258 32.3253 62.6233 32.3596 63.0006ZM29.0989 59.8477L28 61.7509L26.9011 59.8477C27.2468 59.693 27.6213 59.6131 28 59.6131C28.3787 59.6131 28.7532 59.693 29.0989 59.8477L29.0989 59.8477ZM24.7376 61.1004L25.8348 63.0007L23.6405 63.0006C23.6748 62.6233 23.7907 62.258 23.9801 61.9299C24.1695 61.6018 24.428 61.3187 24.7376 61.1004ZM23.9801 66.5716C23.7898 66.2436 23.6729 65.8782 23.6375 65.5006L25.8351 65.5008L24.7363 67.4038C24.427 67.1844 24.169 66.9004 23.9801 66.5716L23.9801 66.5716ZM26.9029 68.6513L28 66.7509L29.0971 68.6513C28.7532 68.8103 28.3789 68.8926 28 68.8926C27.6211 68.8926 27.2468 68.8103 26.9029 68.6513L26.9029 68.6513ZM32.0199 66.5716C31.831 66.9004 31.573 67.1844 31.2637 67.4038L30.1649 65.5008L32.3626 65.5006C32.3271 65.8782 32.2102 66.2436 32.0199 66.5716L32.0199 66.5716Z" fill="#689038"/>
<path d="M10.5 64.2507H8V66.7507H10.5V64.2507Z" fill="#689038"/>
<path d="M13 68.0007H10.5V70.5007H13V68.0007Z" fill="#689038"/>
<path d="M66.8733 46.0072L66.8761 46.0014C66.8143 45.971 66.7514 45.9449 66.6889 45.9173C64.3646 44.8138 61.8229 44.2444 59.25 44.2507C58.831 44.2507 58.4144 44.2653 58 44.2943V39.2507C57.9963 36.3012 57.0459 33.4307 55.2886 31.0618C53.5313 28.6929 51.0601 26.9506 48.2385 26.0914L50.4519 18.3442C50.5178 18.1146 50.5164 17.871 50.4479 17.6422C50.3795 17.4134 50.2468 17.2091 50.0656 17.0534C49.8845 16.8978 49.6625 16.7974 49.426 16.7642C49.1895 16.731 48.9484 16.7664 48.7314 16.8661L50.4519 10.8442C50.5178 10.6146 50.5164 10.371 50.4479 10.1422C50.3795 9.91342 50.2468 9.70907 50.0656 9.55345C49.8845 9.39782 49.6625 9.29744 49.426 9.26423C49.1895 9.23102 48.9484 9.26637 48.7314 9.36608L50.4519 3.3442C50.5186 3.11093 50.5159 2.8633 50.4443 2.63152C50.3726 2.39974 50.235 2.19382 50.0483 2.03888C49.8617 1.88394 49.6339 1.78667 49.3929 1.75894C49.1519 1.73121 48.908 1.77422 48.691 1.88272L42.1241 5.16611L39 1.00076C38.8836 0.84551 38.7326 0.719498 38.559 0.632708C38.3854 0.545917 38.1941 0.500732 38 0.500732C37.8059 0.500732 37.6146 0.545917 37.441 0.632708C37.2674 0.719498 37.1164 0.84551 37 1.00076L33.8759 5.16611L27.309 1.88272C27.092 1.77422 26.8481 1.73122 26.6071 1.75895C26.3661 1.78668 26.1384 1.88394 25.9517 2.03888C25.765 2.19382 25.6274 2.39974 25.5557 2.63152C25.4841 2.86331 25.4814 3.11093 25.5481 3.34421L27.2686 9.36608C27.0516 9.26637 26.8105 9.23102 26.574 9.26424C26.3375 9.29745 26.1155 9.39783 25.9344 9.55346C25.7532 9.70908 25.6205 9.91342 25.5521 10.1422C25.4836 10.371 25.4822 10.6146 25.5481 10.8442L27.2686 16.8661C27.0516 16.7664 26.8105 16.731 26.574 16.7642C26.3375 16.7974 26.1155 16.8978 25.9344 17.0535C25.7532 17.2091 25.6205 17.4134 25.5521 17.6422C25.4836 17.871 25.4822 18.1146 25.5481 18.3442L27.7615 26.0914C24.9399 26.9506 22.4687 28.6929 20.7114 31.0618C18.9541 33.4307 18.0037 36.3012 18 39.2507V59.1068C17.4864 60.1009 17.1252 61.1666 16.9285 62.2681C16.2992 61.338 15.4512 60.5765 14.4591 60.0504C13.4669 59.5243 12.3608 59.2498 11.2378 59.2507H9.76224C8.62962 59.2496 7.5143 59.5286 6.5157 60.0631C5.5171 60.5975 4.66624 61.3707 4.03897 62.3138C3.61607 62.9475 3.03538 63.4602 2.3541 63.8012L1.19099 64.3827C0.983348 64.4865 0.808714 64.6461 0.686667 64.8436C0.564619 65.041 0.499982 65.2686 0.5 65.5007V69.2507C0.499982 69.4829 0.564619 69.7104 0.686667 69.9079C0.808714 70.1054 0.983348 70.265 1.19099 70.3687L2.35402 70.9503C3.03538 71.2913 3.61613 71.804 4.03905 72.4378C4.66633 73.3809 5.51718 74.154 6.51576 74.6884C7.51435 75.2229 8.62964 75.5019 9.76224 75.5007H11.2378C12.3704 75.5019 13.4857 75.2228 14.4843 74.6884C15.4829 74.154 16.3338 73.3807 16.961 72.4377C17.3839 71.804 17.9646 71.2913 18.6459 70.9503L18.8782 70.8341C19.8001 72.113 20.9806 73.1836 22.3433 73.9764C23.7059 74.7692 25.2201 75.2664 26.7875 75.4357C28.3548 75.6051 29.9403 75.4427 31.4408 74.9593C32.9413 74.4758 34.3233 73.6821 35.497 72.6296C37.6445 74.5558 40.4508 75.5821 43.3343 75.4957C46.2179 75.4093 48.9577 74.2169 50.986 72.1655C52.471 72.9784 54.0702 73.5624 55.7296 73.8976C55.9408 74.3743 56.2857 74.7794 56.7225 75.064C57.1593 75.3485 57.6693 75.5002 58.1906 75.5007H60.3094C60.8308 75.5002 61.3409 75.3484 61.7778 75.0638C62.2147 74.7791 62.5596 74.3738 62.7707 73.897C66.1391 73.2256 69.2158 71.5243 71.5753 69.0283C74.1062 66.312 75.5 62.8396 75.5 59.2507C75.5 53.5213 72.0014 48.5326 66.8733 46.0072ZM61.228 46.8806C60.8257 47.2698 60.4919 47.7241 60.2407 48.2243L59.25 50.2056L58.2593 48.2243C58.0081 47.7241 57.6743 47.2698 57.272 46.8805C58.585 46.7074 59.915 46.7075 61.228 46.8806ZM59.25 55.0016L61.3998 57.6888C61.7568 58.1311 61.9515 58.6823 61.9515 59.2507C61.9515 59.819 61.7568 60.3702 61.3998 60.8125L59.25 63.4998L57.1002 60.8126C56.7432 60.3704 56.5485 59.8192 56.5485 59.2508C56.5485 58.6824 56.7432 58.1312 57.1002 57.689L59.25 55.0016ZM48 51.7507V50.5007C48.0004 50.1693 48.1322 49.8516 48.3665 49.6173C48.6009 49.3829 48.9186 49.2511 49.25 49.2507H50.5V50.5007C50.4996 50.8321 50.3678 51.1499 50.1335 51.3842C49.8991 51.6185 49.5814 51.7504 49.25 51.7507H48ZM30.3009 18.3786L28.7326 12.8895L33.691 15.3687C33.9528 15.4998 34.2523 15.5347 34.5372 15.4674C34.8222 15.4002 35.0744 15.235 35.25 15.0007L38 11.334L40.75 15.0007C40.9256 15.2349 41.1779 15.4001 41.4628 15.4673C41.7477 15.5346 42.0472 15.4997 42.309 15.3687L47.2674 12.8895L45.6991 18.3786L42.1241 20.1661L39 16.0008C38.8836 15.8455 38.7326 15.7195 38.559 15.6327C38.3854 15.5459 38.1941 15.5007 38 15.5007C37.8059 15.5007 37.6146 15.5459 37.441 15.6327C37.2674 15.7195 37.1164 15.8455 37 16.0008L33.8759 20.1661L30.3009 18.3786ZM33.691 7.86874C33.9528 7.99974 34.2523 8.03465 34.5372 7.96738C34.8221 7.90012 35.0744 7.73495 35.25 7.5007L38 3.83401L40.75 7.5007C40.9256 7.73493 41.1779 7.90007 41.4628 7.96733C41.7477 8.0346 42.0472 7.9997 42.309 7.86874L47.2674 5.3895L45.6991 10.8786L42.1241 12.6661L39 8.50076C38.8836 8.34551 38.7326 8.2195 38.559 8.13271C38.3854 8.04592 38.1941 8.00073 38 8.00073C37.8059 8.00073 37.6146 8.04592 37.441 8.13271C37.2674 8.2195 37.1164 8.34551 37 8.50076L33.8759 12.6661L30.3009 10.8786L28.7326 5.3895L33.691 7.86874ZM28.7326 20.3895L33.691 22.8687C33.9528 22.9997 34.2523 23.0346 34.5372 22.9674C34.8221 22.9001 35.0744 22.735 35.25 22.5007L38 18.834L40.75 22.5007C40.9256 22.735 41.1779 22.9001 41.4628 22.9674C41.7477 23.0347 42.0472 22.9997 42.309 22.8687L47.2674 20.3895L45.7825 25.5866C45.2737 25.5296 44.762 25.501 44.25 25.5007H31.75C31.238 25.501 30.7263 25.5296 30.2175 25.5866L28.7326 20.3895ZM18 68.4782L17.5278 68.7142C16.4574 69.25 15.5452 70.0554 14.8809 71.0511C14.4816 71.6514 13.9399 72.1435 13.3043 72.4837C12.6686 72.8239 11.9587 73.0015 11.2378 73.0007H9.76224C9.04132 73.0015 8.33141 72.8239 7.69578 72.4837C7.06014 72.1436 6.51853 71.6515 6.1192 71.0513C5.45491 70.0555 4.54256 69.25 3.47211 68.7142L3 68.4782V66.2733L3.47219 66.0372C4.54256 65.5015 5.45484 64.6961 6.11912 63.7003C6.51844 63.1001 7.06006 62.6079 7.69571 62.2678C8.33136 61.9276 9.04129 61.75 9.76224 61.7507H11.2378C11.9587 61.75 12.6686 61.9276 13.3042 62.2677C13.9399 62.6079 14.4815 63.1 14.8808 63.7002C15.5451 64.696 16.4574 65.5015 17.5279 66.0372L18 66.2733V68.4782ZM28 73.0007C26.4905 72.9998 25.0068 72.6088 23.6928 71.8659C22.3788 71.1229 21.279 70.0531 20.5 68.7601V65.5007C20.5 65.2686 20.4354 65.041 20.3133 64.8436C20.1913 64.6461 20.0167 64.4865 19.809 64.3827L19.2537 64.1051C19.2826 62.3812 19.8203 60.7043 20.7992 59.2849C21.778 57.8656 23.1544 56.7672 24.7555 56.1275C26.3567 55.4879 28.1111 55.3356 29.7984 55.6898C31.4858 56.0439 33.0309 56.8888 34.2397 58.1182C35.4485 59.3477 36.2671 60.9068 36.5926 62.6C36.9182 64.2931 36.7362 66.0447 36.0696 67.6347C35.4029 69.2248 34.2813 70.5824 32.8456 71.5371C31.4099 72.4918 29.7241 73.001 28 73.0007ZM69.7462 67.324C67.5699 69.6168 64.6875 71.1134 61.5601 71.5747C61.2649 71.62 60.9958 71.7695 60.8013 71.9962C60.6069 72.2228 60.5 72.5115 60.5 72.8102C60.4999 72.8607 60.4799 72.9091 60.4441 72.9449C60.4084 72.9806 60.3599 73.0007 60.3094 73.0007H58.1906C58.1401 73.0007 58.0916 72.9806 58.0559 72.9449C58.0201 72.9091 58.0001 72.8607 58 72.8102C58 72.5115 57.8931 72.2228 57.6987 71.9961C57.5042 71.7695 57.2351 71.62 56.9399 71.5746C55.4143 71.3439 53.9355 70.8706 52.5595 70.1726C53.3542 68.8924 53.8834 67.4656 54.1156 65.9768C54.3479 64.488 54.2785 62.9677 53.9116 61.5063C53.5446 60.0449 52.8876 58.6721 51.9796 57.4697C51.0716 56.2672 49.9311 55.2596 48.6259 54.5066L47.3741 56.6706C48.4358 57.2828 49.3571 58.1113 50.0783 59.1023C50.7994 60.0933 51.3044 61.2247 51.5603 62.4233C51.8163 63.6219 51.8176 64.8609 51.5642 66.06C51.3108 67.2591 50.8083 68.3916 50.0892 69.3842C49.3702 70.3767 48.4507 71.2071 47.3902 71.8216C46.3298 72.4361 45.1521 72.8209 43.9334 72.9512C42.7147 73.0814 41.4823 72.9542 40.3159 72.5778C39.1495 72.2014 38.0752 71.5841 37.1626 70.766C38.5204 68.8646 39.2501 66.5865 39.25 64.25C39.2499 61.9136 38.5198 59.6356 37.1618 57.7343C37.9158 57.0584 38.7809 56.5178 39.719 56.1364L38.781 53.8189C37.576 54.3088 36.4646 55.0029 35.4956 55.8707C33.4355 54.0221 30.765 53 27.9971 53.0007C25.2292 53.0014 22.5592 54.0249 20.5 55.8745V43.5185L23 41.0185L25.8661 43.8847L27.6339 42.1168L23.8839 38.3668C23.6494 38.1325 23.3315 38.0008 23 38.0008C22.6685 38.0008 22.3506 38.1325 22.1161 38.3668L20.5 39.9829V39.2507C20.5034 36.2681 21.6897 33.4085 23.7988 31.2995C25.9078 29.1904 28.7673 28.0041 31.75 28.0007H44.25C47.2327 28.0041 50.0922 29.1904 52.2012 31.2995C54.3103 33.4085 55.4966 36.2681 55.5 39.2507V39.9829L53.8839 38.3668C53.6494 38.1324 53.3315 38.0008 53 38.0008C52.6685 38.0008 52.3506 38.1324 52.1161 38.3668L48.3661 42.1168L50.1339 43.8847L53 41.0185L55.5 43.5185V44.6521C54.1693 44.941 52.8784 45.3894 51.6551 45.9874C51.6448 45.9924 51.6342 45.9963 51.6239 46.0014L51.6242 46.0021C51.161 46.2299 50.7089 46.4794 50.268 46.7507H49.25C48.2558 46.7519 47.3026 47.1473 46.5996 47.8503C45.8966 48.5533 45.5011 49.5065 45.5 50.5007V52.4829L44.25 53.7329V51.7507H41.75V58.0993C41.5359 58.0349 41.3137 58.0017 41.0901 58.0007H39.25V60.5007H40.9805C41.1822 60.8589 41.4755 61.157 41.8304 61.3644C42.1853 61.5718 42.5889 61.6812 43 61.6812C43.4111 61.6812 43.8147 61.5718 44.1696 61.3644C44.5245 61.157 44.8178 60.8589 45.0195 60.5007H46.75V58.0007H44.9099C44.6863 58.0017 44.4641 58.0349 44.25 58.0993V57.2685L47.2678 54.2507H49.25C50.2442 54.2496 51.1974 53.8542 51.9004 53.1511C52.6034 52.4481 52.9989 51.4949 53 50.5007V48.1313C53.5648 47.928 54.1846 47.9391 54.7418 48.1623C55.2991 48.3855 55.755 48.8054 56.0233 49.3424L57.7742 52.8443L55.148 56.1273C54.434 57.0117 54.0446 58.1141 54.0446 59.2508C54.0446 60.3875 54.434 61.4899 55.148 62.3744L58.2739 66.2817C58.391 66.428 58.5396 66.5462 58.7085 66.6274C58.8775 66.7086 59.0625 66.7507 59.25 66.7507C59.4375 66.7507 59.6225 66.7086 59.7915 66.6274C59.9604 66.5462 60.109 66.428 60.2261 66.2817L63.352 62.3742C64.066 61.4897 64.4554 60.3873 64.4554 59.2507C64.4554 58.114 64.066 57.0116 63.352 56.1271L60.7258 52.8443L62.4767 49.3424C62.7558 48.7841 63.2373 48.3531 63.823 48.1372C64.4087 47.9213 65.0547 47.9367 65.6295 48.1803C70.0074 50.2738 73 54.4502 73 59.2507C72.9791 62.2572 71.8159 65.1433 69.7462 67.324Z" fill="#689038"/>
</svg>
