<?xml version="1.0" encoding="utf-8"?><svg xmlns="http://www.w3.org/2000/svg" xmlns:xlink="http://www.w3.org/1999/xlink"><symbol viewBox="0 0 510 598" id="Figure-Ellipse" xmlns="http://www.w3.org/2000/svg"><path d="M395.404 37.272c103.273 90.815 162.388 396.274 62.62 496.043-99.769 99.768-285.802 75.492-381.95-20.655-96.147-96.148-100.323-218.351-13.442-347.197C149.513 36.616 292.13-53.543 395.404 37.272z"/></symbol><symbol viewBox="0 0 32 42" id="Icon-Scroll" xmlns="http://www.w3.org/2000/svg"><g opacity=".6"><rect x="1" y="1" width="30" height="40" rx="15"/><rect x="14" y="12" width="4" height="9" rx="2"/></g></symbol><symbol viewBox="0 0 76 76" id="Motive-1" xmlns="http://www.w3.org/2000/svg"><path d="M11.582 22.31a23.968 23.968 0 01.282 22.076l2.233 1.125a26.47 26.47 0 00-.237-24.238H62.1a26.47 26.47 0 00-.236 24.238l2.233-1.125a23.968 23.968 0 01.281-22.076L71.79 8.475a31.168 31.168 0 002.694-6.887L72.064.96a28.664 28.664 0 01-2.477 6.335l-2.132 3.979H8.505l-2.131-3.98A28.655 28.655 0 013.897.96l-2.42.628A31.162 31.162 0 004.17 8.474l7.412 13.837zm54.534-8.537l-2.679 5H12.523l-2.678-5h56.27zm-62.12 51.25h10.235v-2.5h-9.56a38.307 38.307 0 012.879-6.908L5.349 54.43A40.992 40.992 0 00.48 73.773v1.25h2.5v-1.25c0-.417.007-.834.022-1.25h7.478v-2.5H3.167c.166-1.683.443-3.353.83-5zm66.616-10.592l-2.202 1.184a38.312 38.312 0 012.879 6.908H61.73v2.5h10.235c.386 1.647.663 3.317.83 5H65.48v2.5h7.478c.014.416.021.833.022 1.25v1.25h2.5v-1.25a40.992 40.992 0 00-4.869-19.342zM40.48 62.523h-5v2.5h5v-2.5zm11.25 7.5h-27.5v2.5h27.5v-2.5z"/><path d="M24.182 34.68l-2.404.686a63.87 63.87 0 012.236 12.26l2.491-.206a66.375 66.375 0 00-2.323-12.74zM39.23 47.523h-2.5v2.5h2.5v-2.5zm14.952-12.157l-2.404-.687a66.383 66.383 0 00-2.323 12.741l2.492.206a63.87 63.87 0 012.235-12.26zM35.48 32.523v-2.5h-1.461a11.682 11.682 0 01-9.967-5.643l-2.144 1.286a14.194 14.194 0 0012.11 6.857h1.462zm18.572-6.857L51.91 24.38a11.683 11.683 0 01-9.967 5.643H40.48v2.5h1.462a14.194 14.194 0 0012.11-6.857z"/><path d="M7.336 47.124c.61.503 1.328.86 2.097 1.047l20.75 5.07.594-2.43-20.751-5.069a2.724 2.724 0 01-1.694-1.244 2.73 2.73 0 011.854-.725h.294v-2.5h-.294a5.23 5.23 0 00-2.076.43l.083-.582a2.748 2.748 0 012.707-2.348h.83v-2.5h-.83a5.26 5.26 0 00-5.181 4.494l-.957 6.699a5.264 5.264 0 004.015 5.843l15.175 3.468.557-2.437-15.175-3.469a2.75 2.75 0 01-2.097-3.052l.099-.695zm56.593 22.083a47.968 47.968 0 00-12.805-11.194l-1.287 2.143a45.463 45.463 0 0111.348 9.65l-2.938 2.204a40.98 40.98 0 00-14.716-12.204L42.43 62.05a38.463 38.463 0 0114.527 12.44 1.25 1.25 0 001.774.283l5-3.75a1.249 1.249 0 00.225-1.782l-.027-.034z"/><path d="M67.184 53.309a5.265 5.265 0 004.016-5.843l-.957-6.699a5.26 5.26 0 00-5.182-4.494h-.83v2.5h.83a2.748 2.748 0 012.707 2.348l.083.582a5.23 5.23 0 00-2.076-.43h-.294v2.5h.294c.687 0 1.35.258 1.854.725a2.725 2.725 0 01-1.694 1.245L38.191 52.52a48.373 48.373 0 00-26.158 16.686l-.028.035a1.25 1.25 0 00.226 1.782l5 3.75a1.252 1.252 0 001.774-.283 38.293 38.293 0 0122.879-15.398l25.3-5.783zM17.714 72.01l-2.938-2.203A45.876 45.876 0 0138.784 54.95l27.746-6.78a5.244 5.244 0 002.096-1.047l.1.695a2.75 2.75 0 01-2.098 3.052l-25.3 5.783A40.783 40.783 0 0017.714 72.01z"/></symbol><symbol viewBox="0 0 76 76" id="Motive-2" xmlns="http://www.w3.org/2000/svg"><path d="M64.25.5h-52.5A11.263 11.263 0 00.5 11.75v52.5A11.263 11.263 0 0011.75 75.5h52.5A11.262 11.262 0 0075.5 64.25v-52.5A11.263 11.263 0 0064.25.5zM73 64.25A8.76 8.76 0 0164.25 73h-52.5A8.76 8.76 0 013 64.25v-52.5A8.76 8.76 0 0111.75 3h52.5A8.76 8.76 0 0173 11.75v52.5z"/><path d="M34.25 65.5h7.5V68h-7.5v-2.5zM23 34.25a6.25 6.25 0 10-9.996 5H13v15h.004a6.25 6.25 0 107.492 0h.004v-15h-.004a6.243 6.243 0 002.504-5zM16.75 63a3.75 3.75 0 110-7.499 3.75 3.75 0 010 7.5zM18 53.128a6.274 6.274 0 00-2.5 0V40.374a6.274 6.274 0 002.5 0v12.752zM16.75 38a3.75 3.75 0 110-7.5 3.75 3.75 0 010 7.5zm48.75-3.75a6.25 6.25 0 10-9.996 5H55.5v15.004a6.25 6.25 0 107.5 0V39.251h-.004a6.243 6.243 0 002.504-5zM59.25 63a3.75 3.75 0 110-7.499 3.75 3.75 0 010 7.5zm1.25-9.873a6.274 6.274 0 00-2.5 0V40.374a6.274 6.274 0 002.5 0v12.752zM59.25 38a3.75 3.75 0 110-7.5 3.75 3.75 0 010 7.5zm-20-22.5h2.5V18h-2.5v-2.5zm5 0h2.5V18h-2.5v-2.5z"/><path d="M58 21.75v-10a6.257 6.257 0 00-6.25-6.25h-27.5A6.257 6.257 0 0018 11.75v10A6.257 6.257 0 0024.25 28h27.5A6.257 6.257 0 0058 21.75zm-2.5 0a3.754 3.754 0 01-3.75 3.75h-27.5a3.754 3.754 0 01-3.75-3.75v-10A3.754 3.754 0 0124.25 8h27.5a3.754 3.754 0 013.75 3.75v10z"/><path d="M51.75 10.5h-27.5A1.25 1.25 0 0023 11.75v10A1.25 1.25 0 0024.25 23h27.5A1.25 1.25 0 0053 21.75v-10a1.25 1.25 0 00-1.25-1.25zm-1.25 10h-25V13h25v7.5z"/></symbol><symbol viewBox="0 0 80 80" id="Motive-3" xmlns="http://www.w3.org/2000/svg"><path d="M39.31 28.619l-1.119-2.236a9.978 9.978 0 01-8.882 0l-1.118 2.236a12.489 12.489 0 0011.118 0zM27.5 46.25H25v2.5h2.5v-2.5zm3.197 22.394a27.202 27.202 0 00-1.823 7.52l2.488.237a24.706 24.706 0 011.656-6.828l.643-1.608-2.321-.928-.643 1.607z"/><path d="M74.836 34.38l-2.757-4.824a17.846 17.846 0 00-6.634-6.634 15.419 15.419 0 01-6.484-7.27l-.675-1.575a17.826 17.826 0 00-2.465-4.114l-2.112-2.64A6.158 6.158 0 0048.877 5H40V2.5h-2.5v3.418l-3.21 5.62a12.682 12.682 0 01-3.957 4.238 2.822 2.822 0 01-4.145-3.495l2.455-5.524c.07-.16.106-.333.105-.507h.002V2.5h-2.5V5s-4.812 0-5.801-.002h-.015a8.328 8.328 0 00-3.757.89l-.055.029a8.235 8.235 0 00-4.54 6.616l-.008.077a51.284 51.284 0 01-4.192 15.954l-.184.413a9.994 9.994 0 00-.407 7.044l5.266 16.852h.002l.005.022 1.25 3.75a1.25 1.25 0 00.883.817l2.921.73-5.897 17.694 2.372.79 5.142-15.426h29.989a11.497 11.497 0 01.709 8.185l-.049.17a13.971 13.971 0 00.18 8.29l2.372-.79a11.48 11.48 0 01-.148-6.813l.049-.17a13.995 13.995 0 00-.941-10.127l-1.503-3.005 2.027-1.35a118.192 118.192 0 0022.765-19.81 1.25 1.25 0 00.15-1.45zM23.246 7.5h2.33l-1.673 3.766a5.323 5.323 0 007.817 6.59 15.196 15.196 0 004.74-5.078l3.016-5.277h3.85a6.17 6.17 0 00-.765 1.37 12.533 12.533 0 003.022 18.02l1.63 1.087-1.809 4.523H19.563l-1.157-2.604a12.42 12.42 0 004.653-1.278l-1.118-2.236a9.92 9.92 0 01-4.633 1.046l-.423-.953a8.807 8.807 0 01.292-7.702L23.247 7.5zm26.658 20.483l1.143-2.668.017.018a11.104 11.104 0 012.472 3.748 13.745 13.745 0 005.658 6.644l.802.481a116.03 116.03 0 01-10.248 10.167l-2.579 2.256-.518-.13-.564-1.69a11.23 11.23 0 01-.241-6.286l1.596-6.387 2.462-6.154zM37.197 48.788a1.25 1.25 0 00-.947 1.213v3.75h-3.475l2.201-11.005-2.451-.49-2.3 11.495h-7.378l.814-2.036a1.25 1.25 0 00-.277-1.348l-1.373-1.373.48-3.838a1.249 1.249 0 00-.02-.426L20.309 35h24.34l-1.228 4.916a13.726 13.726 0 00.294 7.683l.061.182-.973-.243a1.252 1.252 0 00-.606 0l-5 1.25zM17.32 33.612l.237.532 2.426 10.917-.212 1.693-.137-.137a1.253 1.253 0 00-.136-.117A57.495 57.495 0 0016.4 35.144c.32-.502.625-1.014.92-1.532zm-7.338-3.618l.184-.414a53.776 53.776 0 004.397-16.731l.007-.078a5.75 5.75 0 013.17-4.618l.056-.028a5.85 5.85 0 012.612-.625l-5.432 10.089a11.324 11.324 0 00-.376 9.902l1.434 3.227a32.548 32.548 0 01-2.074 3.59 1.25 1.25 0 00-.12 1.157 54.963 54.963 0 013.267 11.911l-2.78 2.78-4.65-14.88a7.496 7.496 0 01.305-5.282zm5.199 22.844l3.57-3.57 2.283 2.284-1.789 4.471-3.276-.819-.788-2.366zm4.889 5.908a1.248 1.248 0 001.09-.781l.687-1.714H36.25a1.25 1.25 0 001.495 1.226l5.975-1.195 3.455.863.803 1.606h-27.91l.002-.005zm30.463-5.186l-2.016 1.344-4.464-1.116a1.247 1.247 0 00-.548-.013l-4.755.95v-3.748l3.75-.938 4.14 1.035.992 1.986 2.236-1.118-.818-1.636 2.344-2.051c4.66-4.08 8.994-8.52 12.961-13.278l.356-.426-1.92-1.6-.356.426c-.255.306-.512.61-.77.914l-1.185-.71a11.23 11.23 0 01-4.623-5.428 13.593 13.593 0 00-3.025-4.588l-4.448-4.448-1.768 1.768 2.527 2.526-.95 2.216-1.223-.816a10.015 10.015 0 01-4.173-10.76 6.156 6.156 0 005.549 3.45H50V15h-1.654a3.669 3.669 0 01-3.423-2.316l-.05-.125a3.687 3.687 0 013.422-5.06h.582a3.67 3.67 0 012.88 1.384l2.111 2.64a15.323 15.323 0 012.12 3.538l.675 1.574a17.935 17.935 0 007.541 8.457 15.342 15.342 0 015.704 5.704l2.31 4.041A115.706 115.706 0 0150.533 53.56z"/></symbol><symbol viewBox="0 0 76 76" id="Motive-4" xmlns="http://www.w3.org/2000/svg"><path d="M27.116 45.867l-3.75 3.75 1.768 1.768L28 48.519l2.866 2.866 1.768-1.768-3.75-3.75a1.25 1.25 0 00-1.768 0zm15.518 3.75l-3.75-3.75a1.25 1.25 0 00-1.768 0l-3.75 3.75 1.768 1.768L38 48.519l2.866 2.866 1.768-1.768zm-5-7.5l-3.75-3.75a1.25 1.25 0 00-1.768 0l-3.75 3.75 1.768 1.768L33 41.019l2.866 2.866 1.768-1.768zm.732 0l1.768 1.768L43 41.019l2.866 2.866 1.768-1.768-3.75-3.75a1.25 1.25 0 00-1.768 0l-3.75 3.75zm-7.5-5.732l1.768-1.768-3.75-3.75a1.25 1.25 0 00-1.768 0l-3.75 3.75 1.768 1.768L28 33.519l2.866 2.866zM38 33.519l2.866 2.866 1.768-1.768-3.75-3.75a1.25 1.25 0 00-1.768 0l-3.75 3.75 1.768 1.768L38 33.519zm10 0l2.866 2.866 1.768-1.768-3.75-3.75a1.25 1.25 0 00-1.768 0l-3.75 3.75 1.768 1.768L48 33.519zM48 63h-2.5v2.5H48V63zm-2.5 3.75H43v2.5h2.5v-2.5zm-11.315-6.07a5.093 5.093 0 00-2.799-2.294 5.127 5.127 0 00-6.772 0 5.128 5.128 0 00-3.386 5.865 5.129 5.129 0 003.386 5.865 5.127 5.127 0 006.772 0 5.129 5.129 0 003.386-5.865 5.094 5.094 0 00-.587-3.571zM32.36 63h-2.195l1.097-1.9A2.615 2.615 0 0132.36 63zm-3.261-3.152L28 61.75l-1.099-1.903a2.69 2.69 0 012.198 0zM24.738 61.1l1.097 1.9H23.64a2.615 2.615 0 011.098-1.9zm-.758 5.472a2.622 2.622 0 01-.343-1.071h2.198l-1.099 1.903a2.621 2.621 0 01-.756-.832zm2.923 2.08L28 66.75l1.097 1.9a2.614 2.614 0 01-2.194 0zm5.117-2.08a2.621 2.621 0 01-.756.832l-1.1-1.903h2.199a2.623 2.623 0 01-.343 1.07zM10.5 64.25H8v2.5h2.5v-2.5zM13 68h-2.5v2.5H13V68z"/><path d="M66.873 46.007l.003-.006c-.062-.03-.125-.056-.187-.084a17.246 17.246 0 00-7.439-1.666c-.419 0-.836.014-1.25.043v-5.043a13.774 13.774 0 00-9.761-13.16l2.213-7.747a1.247 1.247 0 00-1.72-1.478l1.72-6.022a1.247 1.247 0 00-1.72-1.478l1.72-6.022a1.25 1.25 0 00-1.761-1.461l-6.567 3.283L39 1.001a1.25 1.25 0 00-2 0l-3.124 4.165-6.567-3.283a1.25 1.25 0 00-1.76 1.461l1.72 6.022a1.248 1.248 0 00-1.72 1.478l1.72 6.022a1.248 1.248 0 00-1.72 1.478l2.213 7.747A13.774 13.774 0 0018 39.251v19.856c-.514.994-.875 2.06-1.072 3.161a6.864 6.864 0 00-5.69-3.017H9.762a6.865 6.865 0 00-5.723 3.063A4.386 4.386 0 012.354 63.8l-1.163.582A1.25 1.25 0 00.5 65.5v3.75a1.25 1.25 0 00.691 1.118l1.163.581a4.385 4.385 0 011.685 1.488A6.864 6.864 0 009.762 75.5h1.476a6.865 6.865 0 005.723-3.063 4.386 4.386 0 011.685-1.488l.232-.116a11.238 11.238 0 0016.619 1.796 11.234 11.234 0 0015.489-.465 16.811 16.811 0 004.744 1.733 2.695 2.695 0 002.46 1.603h2.12a2.695 2.695 0 002.46-1.604 16.574 16.574 0 008.805-4.869c2.531-2.716 3.925-6.188 3.925-9.777 0-5.73-3.499-10.718-8.627-13.244zm-5.645.874a4.976 4.976 0 00-.987 1.343l-.991 1.982-.99-1.982a4.98 4.98 0 00-.988-1.343 15.133 15.133 0 013.956 0zM59.25 55l2.15 2.688a2.487 2.487 0 010 3.123L59.25 63.5l-2.15-2.687a2.486 2.486 0 010-3.124l2.15-2.687zM48 51.752V50.5a1.251 1.251 0 011.25-1.25h1.25v1.25a1.252 1.252 0 01-1.25 1.25H48zM30.3 18.379l-1.567-5.49 4.958 2.48A1.249 1.249 0 0035.25 15L38 11.334l2.75 3.667a1.25 1.25 0 001.559.368l4.958-2.48-1.568 5.49-3.575 1.787L39 16.001a1.25 1.25 0 00-2 0l-3.124 4.165L30.3 18.38zm3.391-10.51A1.25 1.25 0 0035.25 7.5L38 3.834l2.75 3.667a1.25 1.25 0 001.559.368l4.958-2.48-1.568 5.49-3.575 1.787L39 8.501a1.25 1.25 0 00-2 0l-3.124 4.165L30.3 10.88l-1.568-5.49 4.958 2.48zm-4.958 12.52l4.958 2.48a1.25 1.25 0 001.559-.368L38 18.834l2.75 3.667a1.25 1.25 0 001.559.368l4.958-2.48-1.485 5.198a13.839 13.839 0 00-1.532-.086h-12.5c-.512 0-1.024.029-1.532.086l-1.485-5.197zM18 68.48l-.472.235a6.888 6.888 0 00-2.647 2.337 4.37 4.37 0 01-3.643 1.95H9.762a4.369 4.369 0 01-3.643-1.95 6.888 6.888 0 00-2.647-2.337L3 68.478v-2.205l.472-.236A6.887 6.887 0 006.12 63.7a4.37 4.37 0 013.643-1.95h1.476a4.371 4.371 0 013.643 1.95 6.887 6.887 0 002.647 2.337l.472.236v2.205zM28 73a8.762 8.762 0 01-7.5-4.24V65.5a1.25 1.25 0 00-.691-1.118l-.555-.278A8.749 8.749 0 1128 73.001zm41.746-5.677a14.13 14.13 0 01-8.186 4.25 1.25 1.25 0 00-1.06 1.236.19.19 0 01-.19.19h-2.12a.19.19 0 01-.19-.19 1.25 1.25 0 00-1.06-1.235 14.463 14.463 0 01-4.38-1.402 11.24 11.24 0 00-3.934-15.666l-1.252 2.164a8.751 8.751 0 11-10.211 14.095 11.211 11.211 0 00-.001-13.032 8.792 8.792 0 012.557-1.598l-.938-2.317a11.309 11.309 0 00-3.285 2.052 11.223 11.223 0 00-14.996.003V43.52l2.5-2.5 2.866 2.866 1.768-1.768-3.75-3.75a1.25 1.25 0 00-1.768 0L20.5 39.983v-.732A11.263 11.263 0 0131.75 28h12.5A11.262 11.262 0 0155.5 39.25v.732l-1.616-1.616a1.25 1.25 0 00-1.768 0l-3.75 3.75 1.768 1.768L53 41.019l2.5 2.5v1.133c-1.33.289-2.622.737-3.845 1.335l-.031.014v.001a16.38 16.38 0 00-1.356.749H49.25a3.755 3.755 0 00-3.75 3.75v1.982l-1.25 1.25V51.75h-2.5v6.348a2.327 2.327 0 00-.66-.098h-1.84v2.5h1.73a2.317 2.317 0 004.04 0h1.73V58h-1.84a2.327 2.327 0 00-.66.098v-.83l3.018-3.018h1.982A3.754 3.754 0 0053 50.5v-2.37a2.451 2.451 0 013.023 1.211l1.751 3.502-2.626 3.283a4.972 4.972 0 000 6.247l3.126 3.908a1.251 1.251 0 001.952 0l3.126-3.908a4.973 4.973 0 000-6.247l-2.626-3.283 1.75-3.502a2.454 2.454 0 013.153-1.162C70.007 50.274 73 54.45 73 59.25a11.847 11.847 0 01-3.254 8.074z"/></symbol><symbol viewBox="0 0 20 19" id="Star" xmlns="http://www.w3.org/2000/svg"><path d="M.052 7.288c.131-.384.49-.658.915-.694l5.773-.498L9.022 1.02c.169-.372.552-.612.978-.612.426 0 .81.24.977.613l2.283 5.075 5.774.498c.424.037.782.31.914.694a.977.977 0 01-.311 1.073l-4.364 3.635 1.287 5.385a.985.985 0 01-.413 1.042 1.099 1.099 0 01-1.168.049L10 15.644l-4.977 2.828a1.104 1.104 0 01-1.168-.049.985.985 0 01-.413-1.042l1.286-5.385L.364 8.362a.978.978 0 01-.312-1.074z"/></symbol>
<symbol width="30" height="30" viewBox="0 0 30 30" id="Facebook-Icon" fill="none" xmlns="http://www.w3.org/2000/svg">
<path d="M15 30C23.2843 30 30 23.2843 30 15C30 6.71573 23.2843 0 15 0C6.71573 0 0 6.71573 0 15C0 23.2843 6.71573 30 15 30Z" fill="#CECECE"/>
<path d="M18.7711 15.5873H16.0945V25.393H12.0393V15.5873H10.1106V12.1412H12.0393V9.91119C12.0393 8.31648 12.7968 5.81934 16.1306 5.81934L19.1344 5.8319V9.17694H16.955C16.5975 9.17694 16.0948 9.35556 16.0948 10.1163V12.1444H19.1254L18.7711 15.5873Z" fill="white"/>
</symbol>
<svg xmlns="http://www.w3.org/2000/svg" xmlns:xlink="http://www.w3.org/1999/xlink"><symbol viewBox="0 0 52 51" id="Headphones" xmlns="http://www.w3.org/2000/svg"><path d="M51.044 28.828c0-3.46-2.574-6.33-5.908-6.797V20.34C45.136 9.537 36.347.748 25.544.748 14.74.748 5.952 9.537 5.952 20.34v1.69a6.824 6.824 0 00-2.904 1.125V12.714H.044v16.114c0 3.461 2.574 6.33 5.908 6.798v1.27c0 5.632 4.582 10.214 10.214 10.214h4.12a4.663 4.663 0 004.407 3.154h1.351a4.662 4.662 0 004.657-4.656 4.662 4.662 0 00-4.657-4.656h-1.351a4.663 4.663 0 00-4.407 3.154h-4.12c-3.59 0-6.574-2.637-7.12-6.075a4.935 4.935 0 001.87.367 4.97 4.97 0 004.965-4.964v-9.397a4.97 4.97 0 00-4.965-4.965c-.687 0-1.341.14-1.937.394.456-8.742 7.711-15.714 16.565-15.714 8.854 0 16.11 6.972 16.565 15.714a4.937 4.937 0 00-1.938-.394 4.97 4.97 0 00-4.964 4.965v9.397a4.97 4.97 0 004.965 4.964 4.968 4.968 0 004.424-2.717c3.592-.217 6.448-3.207 6.448-6.852zM24.693 43.956h1.352c.91 0 1.652.741 1.652 1.652 0 .911-.741 1.652-1.652 1.652h-1.352a1.654 1.654 0 01-1.652-1.652c0-.911.74-1.652 1.652-1.652zM3.048 28.828a3.87 3.87 0 012.904-3.741v7.483a3.87 3.87 0 01-2.904-3.742zm7.868-6.752c1.081 0 1.96.88 1.96 1.96v9.398c0 1.08-.879 1.96-1.96 1.96-1.08 0-1.96-.88-1.96-1.96v-9.397c0-1.081.88-1.96 1.96-1.96zm29.256 13.318a1.963 1.963 0 01-1.961-1.96v-9.397c0-1.081.88-1.96 1.96-1.96 1.081 0 1.96.879 1.96 1.96v9.397c0 1.08-.879 1.96-1.96 1.96zm4.964-2.824v-7.483a3.87 3.87 0 012.904 3.742 3.87 3.87 0 01-2.904 3.741z"/></symbol><symbol viewBox="0 0 51 49" id="Rocket" xmlns="http://www.w3.org/2000/svg"><path d="M50.783 2.978c-.077-.646-.626-1.155-1.32-1.227C37.637.531 27.557 4.925 19.334 12.787c-2.352 2.25-4.394 4.631-6.136 6.93-2.948-.112-6.217 1.127-8.535 3.28L.438 26.923A1.315 1.315 0 00.2 28.598c.338.544 1.028.81 1.681.647.98-.245 2.574-.53 4.105-.595.56-.025 1.025-.017 1.411.01-.933 1.667-1.647 3.063-1.884 3.412a1.315 1.315 0 00.208 1.72l2.445 2.272c-3.559 4.51-3.618 6.819-3.605 7.146.026.693.608 1.342 1.571 1.342.834 0 3.227-.33 7.583-3.334l2.573 2.39a1.582 1.582 0 001.864.186c.403-.24 1.817-.877 3.513-1.7.028 1.174-.143 2.899-.516 5.236-.211 1.326 1.524 2.124 2.535 1.185l4.227-3.926c2.18-2.024 3.443-5.031 3.35-7.852 2.606-1.692 5.318-3.688 7.85-5.994 8.384-7.636 12.968-16.928 11.672-27.765zm-2.859 1.428c.239 2.993-.016 5.894-.757 8.7-1.841-.538-3.64-1.596-5.266-3.105-1.631-1.516-2.773-3.194-3.35-4.91 3.021-.679 6.146-.908 9.373-.685zM5.791 25.876l.986-.916c1.193-1.108 2.744-1.905 4.286-2.264a77.067 77.067 0 00-2.157 3.37c-.979-.2-2.067-.238-3.115-.19zm2.828 6.683c.323-.592.714-1.336 1.432-2.596l1.967 1.828a56.814 56.814 0 00-1.988 2.079l-1.41-1.31zm7.307-.53c1.09-1.012 2.133-1.196 3.43-1.222-.028 1.174-.231 2.176-1.316 3.184-4.64 4.31-7.82 6.234-9.721 7.092.938-1.8 3.015-4.79 7.607-9.055zm1.681 8.879l-1.54-1.432a60.656 60.656 0 002.23-1.853l2.095 1.945c-1.377.683-1.951.94-2.785 1.34zm8.19 1.718l-1.196 1.111c.097-1.346.063-2.327-.074-3.084a88.286 88.286 0 003.543-1.955c-.356 1.467-1.157 2.892-2.273 3.928zm-2.685-4.457l-2.68-2.489c1.984-2.026 1.91-3.978 1.91-6.26 0-.766-.67-1.387-1.495-1.387-2.294 0-4.502-.115-6.739 1.773l-2.559-2.377C18.537 16.05 26.611 8.846 35.685 5.88c.718 2.16 2.116 4.24 4.103 6.085 1.978 1.837 4.206 3.133 6.52 3.802-3.212 8.382-10.966 15.878-23.196 22.403z"/><path d="M37.806 14.05c-2.926-2.772-7.686-2.772-10.612 0-2.925 2.773-2.925 7.283 0 10.055 2.925 2.772 7.686 2.773 10.612 0 2.925-2.772 2.925-7.282 0-10.055zm-2.122 8.044c-1.756 1.664-4.612 1.664-6.368 0a4.114 4.114 0 010-6.033c1.756-1.663 4.612-1.663 6.368 0a4.114 4.114 0 010 6.033z"/></symbol><symbol viewBox="0 0 52 52" id="Truck" xmlns="http://www.w3.org/2000/svg"><g clip-path="url(#clip0)"><path d="M38.562 30.327a6.436 6.436 0 00-6.429 6.429 6.436 6.436 0 006.429 6.428 6.435 6.435 0 006.428-6.428 6.436 6.436 0 00-6.428-6.429zm0 9.643a3.217 3.217 0 01-3.215-3.214 3.218 3.218 0 013.215-3.215 3.218 3.218 0 013.214 3.215 3.217 3.217 0 01-3.214 3.214zm-21.964-9.643a6.436 6.436 0 00-6.43 6.429 6.436 6.436 0 006.43 6.428 6.436 6.436 0 006.428-6.428 6.436 6.436 0 00-6.428-6.429zm0 9.643a3.218 3.218 0 01-3.215-3.214 3.218 3.218 0 013.215-3.215 3.218 3.218 0 013.214 3.215 3.217 3.217 0 01-3.215 3.214zM42.89 11.927a1.608 1.608 0 00-1.435-.886H32.99v3.215h7.473l4.377 8.704 2.872-1.444-4.821-9.59z"/><path d="M33.74 35.202H21.58v3.215h12.16v-3.215zm-21.964 0H6.205a1.607 1.607 0 100 3.215h5.571a1.607 1.607 0 100-3.215zm38.93-9.825l-3.16-4.071a1.605 1.605 0 00-1.27-.622H34.598V9.434c0-.887-.72-1.607-1.608-1.607H6.205a1.607 1.607 0 100 3.215h25.178v11.25c0 .887.72 1.607 1.607 1.607h12.5l2.34 3.015v8.288h-4.447a1.607 1.607 0 100 3.214h6.054c.888 0 1.607-.719 1.607-1.607V26.363c0-.357-.119-.704-.337-.986zM11.669 27.06H4.276a1.607 1.607 0 100 3.214h7.393a1.607 1.607 0 100-3.214zm3.696-6.322H1.651a1.607 1.607 0 100 3.214h13.714a1.607 1.607 0 100-3.214z"/><path d="M17.99 14.417H4.276a1.607 1.607 0 100 3.214H17.99a1.607 1.607 0 100-3.214z"/></g></symbol></svg>