<svg xmlns="http://www.w3.org/2000/svg" width="21" height="27" viewBox="0 0 21 27"><defs><clipPath id="51qia"><path fill="#fff" d="M0 27V0h21v27zm18.118-11.343c1.187-1.705 1.892-3.736 1.892-5.738 0-4.929-4.251-8.923-9.497-8.923C5.27.996 1.02 4.99 1.02 9.92c0 2.002.703 4.032 1.89 5.738H2.9l7.614 10.332 7.618-10.332zm-7.62-.653a4.5 4.5 0 0 1-4.501-4.497 4.499 4.499 0 0 1 4.501-4.497 4.5 4.5 0 0 1 4.503 4.497 4.5 4.5 0 0 1-4.503 4.497z"/></clipPath></defs><g><g><path fill="#fe2232" d="M18.118 15.657h.013l-7.618 10.332L2.9 15.657h.011C1.723 13.95 1.02 11.92 1.02 9.919 1.02 4.99 5.27.996 10.513.996c5.246 0 9.497 3.994 9.497 8.923 0 2.002-.705 4.033-1.892 5.738zM15 10.507a4.5 4.5 0 0 0-4.503-4.497 4.499 4.499 0 0 0-4.501 4.497 4.5 4.5 0 0 0 4.501 4.497 4.5 4.5 0 0 0 4.503-4.497z"/><path fill="none" stroke="#fff" stroke-linecap="round" stroke-linejoin="round" stroke-miterlimit="50" stroke-width="2" d="M18.118 15.657h.013l-7.618 10.332L2.9 15.657h.011C1.723 13.95 1.02 11.92 1.02 9.919 1.02 4.99 5.27.996 10.513.996c5.246 0 9.497 3.994 9.497 8.923 0 2.002-.705 4.033-1.892 5.738zM15 10.507a4.5 4.5 0 0 0-4.503-4.497 4.499 4.499 0 0 0-4.501 4.497 4.5 4.5 0 0 0 4.501 4.497 4.5 4.5 0 0 0 4.503-4.497z" clip-path="url(&quot;#51qia&quot;)"/></g><g><path fill="#fe2232" d="M10.5 8a2.5 2.5 0 1 1 0 5 2.5 2.5 0 0 1 0-5z"/></g></g></svg>